<?xml version="1.0" encoding="UTF-8" standalone="no"?><!DOCTYPE svg PUBLIC "-//W3C//DTD SVG 1.1//EN" "http://www.w3.org/Graphics/SVG/1.1/DTD/svg11.dtd"><svg width="100%" height="100%" viewBox="0 0 120 120" version="1.1" xmlns="http://www.w3.org/2000/svg" xmlns:xlink="http://www.w3.org/1999/xlink" xml:space="preserve" xmlns:serif="http://www.serif.com/" style="fill-rule:evenodd;clip-rule:evenodd;stroke-linecap:round;stroke-linejoin:round;stroke-miterlimit:1.5;"><rect id="G2" x="0" y="0" width="120" height="120" style="fill:none;"/><path d="M112.734,33.633c0,-14.553 -11.814,-26.367 -26.367,-26.367l-52.734,-0c-14.553,-0 -26.367,11.814 -26.367,26.367l-0,52.734c-0,14.553 11.814,26.367 26.367,26.367l52.734,0c14.553,0 26.367,-11.814 26.367,-26.367l0,-52.734Z" style="stroke:#2fe6de;stroke-width:3.52px;"/><path d="M65.931,51.179l0.262,-5.235c0.174,-4.921 0.942,-8.743 2.303,-11.465c1.361,-2.722 3.621,-4.834 6.779,-6.334c3.159,-1.501 6.553,-2.252 10.183,-2.252c5.689,0 10.226,1.597 13.611,4.791c3.385,3.193 5.078,7.46 5.078,12.799c-0,3.072 -0.698,6.309 -2.094,9.711c-1.396,3.403 -3.734,7.6 -7.015,12.591l-9.371,14.134l16.229,0l-0,12.774l-36.593,0l-0,-4.293l22.138,-33.871c0.559,-0.872 1.215,-2.39 1.967,-4.554c0.752,-2.164 1.128,-3.944 1.128,-5.34c-0,-2.094 -0.535,-3.778 -1.603,-5.052c-1.069,-1.274 -2.498,-1.911 -4.285,-1.911c-2.103,0 -3.724,0.908 -4.863,2.723c-1.139,1.814 -1.709,4.38 -1.709,7.695l0,3.089l-12.145,-0Z" style="fill:#2fe6de;fill-rule:nonzero;"/><path d="M40.359,44.647l-2.699,-0l-0,-5.02l11.826,0c-0,2.89 -0.203,5.039 -0.609,6.446c-0.393,1.356 -1.217,2.731 -2.471,4.126c-1.23,1.381 -2.719,2.389 -4.468,3.023c-1.75,0.634 -3.626,0.95 -5.628,0.95c-2.979,0 -5.685,-0.494 -8.119,-1.483c-2.446,-0.963 -4.335,-2.56 -5.666,-4.791c-1.343,-2.193 -2.015,-4.652 -2.015,-7.377c-0,-4.119 1.356,-7.44 4.069,-9.963c2.687,-2.522 5.982,-3.783 9.886,-3.783c3.258,-0 5.812,0.792 7.663,2.376l-0,-1.844l6.369,-0l0,9.24l-6.369,0c-0.558,-1.14 -1.284,-2.002 -2.177,-2.585c-0.894,-0.584 -1.936,-0.875 -3.128,-0.875c-1.673,-0 -2.903,0.545 -3.689,1.635c-0.773,1.09 -1.159,3.093 -1.159,6.008c-0,2.903 0.405,4.874 1.217,5.913c0.823,1.052 2.021,1.578 3.593,1.578c2.383,0 3.574,-1.191 3.574,-3.574Z" style="fill:#2fe6de;fill-rule:nonzero;"/></svg>