<?xml version="1.0" encoding="UTF-8" standalone="no"?><!DOCTYPE svg PUBLIC "-//W3C//DTD SVG 1.1//EN" "http://www.w3.org/Graphics/SVG/1.1/DTD/svg11.dtd"><svg width="100%" height="100%" viewBox="0 0 120 120" version="1.1" xmlns="http://www.w3.org/2000/svg" xmlns:xlink="http://www.w3.org/1999/xlink" xml:space="preserve" xmlns:serif="http://www.serif.com/" style="fill-rule:evenodd;clip-rule:evenodd;stroke-linecap:round;stroke-linejoin:round;stroke-miterlimit:1.5;"><rect id="G2" x="0" y="0" width="120" height="120" style="fill:none;"/><path d="M112.734,33.633c0,-14.553 -11.814,-26.367 -26.367,-26.367l-52.734,-0c-14.553,-0 -26.367,11.814 -26.367,26.367l-0,52.734c-0,14.553 11.814,26.367 26.367,26.367l52.734,0c14.553,0 26.367,-11.814 26.367,-26.367l0,-52.734Z" style="stroke:#2fe6de;stroke-width:3.52px;"/><path d="M95.666,58.037c2.792,1.501 4.808,3.42 6.047,5.758c1.239,2.339 1.858,5.654 1.858,9.947c0,13.507 -6.526,20.26 -19.579,20.26c-5.2,-0 -9.563,-1.457 -13.088,-4.371c-3.525,-2.915 -5.287,-8.141 -5.287,-15.68l13.506,0c0.035,2.967 0.419,5.148 1.152,6.544c0.733,1.396 2.216,2.094 4.45,2.094c3.629,0 5.444,-2.739 5.444,-8.219c0,-6.805 -2.53,-10.208 -7.591,-10.208l-2.669,-0l-0,-11.151c4.653,-0.07 7.57,-0.884 8.751,-2.441c1.181,-1.558 1.771,-3.686 1.771,-6.382c0,-5.286 -1.875,-7.929 -5.624,-7.929c-1.633,-0 -2.77,0.702 -3.412,2.107c-0.643,1.404 -0.998,3.616 -1.068,6.636l-12.093,-0c0,-6.771 1.527,-11.666 4.581,-14.685c3.054,-3.019 7.338,-4.528 12.852,-4.528c5.305,-0 9.476,1.501 12.512,4.502c3.036,3.001 4.554,7.155 4.554,12.459c0,3.7 -0.549,6.649 -1.649,8.848c-1.099,2.198 -2.905,4.345 -5.418,6.439Z" style="fill:#2fe6de;fill-rule:nonzero;"/><path d="M40.359,44.647l-2.699,-0l-0,-5.02l11.826,0c-0,2.89 -0.203,5.039 -0.609,6.446c-0.393,1.356 -1.217,2.731 -2.471,4.126c-1.23,1.381 -2.719,2.389 -4.468,3.023c-1.75,0.634 -3.626,0.95 -5.628,0.95c-2.979,0 -5.685,-0.494 -8.119,-1.483c-2.446,-0.963 -4.335,-2.56 -5.666,-4.791c-1.343,-2.193 -2.015,-4.652 -2.015,-7.377c-0,-4.119 1.356,-7.44 4.069,-9.963c2.687,-2.522 5.982,-3.783 9.886,-3.783c3.258,-0 5.812,0.792 7.663,2.376l-0,-1.844l6.369,-0l0,9.24l-6.369,0c-0.558,-1.14 -1.284,-2.002 -2.177,-2.585c-0.894,-0.584 -1.936,-0.875 -3.128,-0.875c-1.673,-0 -2.903,0.545 -3.689,1.635c-0.773,1.09 -1.159,3.093 -1.159,6.008c-0,2.903 0.405,4.874 1.217,5.913c0.823,1.052 2.021,1.578 3.593,1.578c2.383,0 3.574,-1.191 3.574,-3.574Z" style="fill:#2fe6de;fill-rule:nonzero;"/></svg>