<?xml version="1.0" encoding="UTF-8" standalone="no"?><!DOCTYPE svg PUBLIC "-//W3C//DTD SVG 1.1//EN" "http://www.w3.org/Graphics/SVG/1.1/DTD/svg11.dtd"><svg width="100%" height="100%" viewBox="0 0 120 120" version="1.1" xmlns="http://www.w3.org/2000/svg" xmlns:xlink="http://www.w3.org/1999/xlink" xml:space="preserve" xmlns:serif="http://www.serif.com/" style="fill-rule:evenodd;clip-rule:evenodd;stroke-linecap:round;stroke-linejoin:round;stroke-miterlimit:1.5;"><rect id="LANDMARKS" x="0" y="0" width="120" height="120" style="fill:none;"/><path d="M112.734,33.633c0,-14.553 -11.814,-26.367 -26.367,-26.367l-52.734,-0c-14.553,-0 -26.367,11.814 -26.367,26.367l-0,52.734c-0,14.553 11.814,26.367 26.367,26.367l52.734,0c14.553,0 26.367,-11.814 26.367,-26.367l0,-52.734Z" style="stroke:#f78f1e;stroke-width:3.52px;"/><g transform="matrix(107.214,0,0,107.214,107.34,92.693)"></g><text x="60.382px" y="92.693px" style="font-family:'TwCenMT-CondensedBold', 'Tw Cen MT Condensed', sans-serif;font-weight:700;font-size:107.214px;fill:#f78f1e;">1</text><g transform="matrix(0.102958,0,0,0.102958,20.4192,10.1455)"><text x="-17.587px" y="423.559px" style="font-family:'Rockwell-ExtraBold', 'Rockwell Extra Bold', serif;font-weight:800;font-size:378.201px;fill:#f78f1e;">L</text><g transform="matrix(378.201,0,0,378.201,399.948,801.76)"></g><text x="-17.587px" y="801.76px" style="font-family:'Rockwell-ExtraBold', 'Rockwell Extra Bold', serif;font-weight:800;font-size:378.201px;fill:#f78f1e;">M</text></g></svg>