<?xml version="1.0" encoding="UTF-8" standalone="no"?><!DOCTYPE svg PUBLIC "-//W3C//DTD SVG 1.1//EN" "http://www.w3.org/Graphics/SVG/1.1/DTD/svg11.dtd"><svg width="100%" height="100%" viewBox="0 0 120 120" version="1.1" xmlns="http://www.w3.org/2000/svg" xmlns:xlink="http://www.w3.org/1999/xlink" xml:space="preserve" xmlns:serif="http://www.serif.com/" style="fill-rule:evenodd;clip-rule:evenodd;stroke-linecap:round;stroke-linejoin:round;stroke-miterlimit:1.5;"><rect id="LM2" x="0" y="0" width="120" height="120" style="fill:none;"/><path d="M112.734,33.633c0,-14.553 -11.814,-26.367 -26.367,-26.367l-52.734,-0c-14.553,-0 -26.367,11.814 -26.367,26.367l-0,52.734c-0,14.553 11.814,26.367 26.367,26.367l52.734,0c14.553,0 26.367,-11.814 26.367,-26.367l0,-52.734Z" style="stroke:#f78f1e;stroke-width:3.52px;"/><path d="M65.931,51.179l0.262,-5.235c0.174,-4.921 0.942,-8.743 2.303,-11.465c1.361,-2.722 3.621,-4.834 6.779,-6.334c3.159,-1.501 6.553,-2.252 10.183,-2.252c5.689,0 10.226,1.597 13.611,4.791c3.385,3.193 5.078,7.46 5.078,12.799c-0,3.072 -0.698,6.309 -2.094,9.711c-1.396,3.403 -3.734,7.6 -7.015,12.591l-9.371,14.134l16.229,0l-0,12.774l-36.593,0l-0,-4.293l22.138,-33.871c0.559,-0.872 1.215,-2.39 1.967,-4.554c0.752,-2.164 1.128,-3.944 1.128,-5.34c-0,-2.094 -0.535,-3.778 -1.603,-5.052c-1.069,-1.274 -2.498,-1.911 -4.285,-1.911c-2.103,0 -3.724,0.908 -4.863,2.723c-1.139,1.814 -1.709,4.38 -1.709,7.695l0,3.089l-12.145,-0Z" style="fill:#f78f1e;fill-rule:nonzero;"/><g><path d="M45.17,53.754l-25.174,0l0,-6.331l2.377,-0l0,-13.785l-2.377,0l0,-6.331l15.116,-0l-0,6.331l-2.51,0l0,13.785l6.255,-0l0,-4.24l6.313,-0l-0,10.571Z" style="fill:#f78f1e;fill-rule:nonzero;"/><path d="M30.549,92.693l-10.248,0l-0,-6.331l2.034,-0l0,-13.785l-2.091,0l-0,-6.331l15.952,-0l3.897,10.21l3.993,-10.21l15.857,-0l-0,6.331l-2.072,0l-0,13.785l2.129,-0l0,6.331l-13.804,0l0,-6.331l2.111,-0l-0,-14.774l-7.986,21.105l-3.954,0l-7.91,-20.914l0,14.583l2.092,-0l-0,6.331Z" style="fill:#f78f1e;fill-rule:nonzero;"/></g></svg>