<?xml version="1.0" encoding="UTF-8" standalone="no"?><!DOCTYPE svg PUBLIC "-//W3C//DTD SVG 1.1//EN" "http://www.w3.org/Graphics/SVG/1.1/DTD/svg11.dtd"><svg width="100%" height="100%" viewBox="0 0 120 120" version="1.1" xmlns="http://www.w3.org/2000/svg" xmlns:xlink="http://www.w3.org/1999/xlink" xml:space="preserve" xmlns:serif="http://www.serif.com/" style="fill-rule:evenodd;clip-rule:evenodd;stroke-linecap:round;stroke-linejoin:round;stroke-miterlimit:1.5;"><rect id="LM3" x="0" y="0" width="120" height="120" style="fill:none;"/><path d="M112.734,33.633c0,-14.553 -11.814,-26.367 -26.367,-26.367l-52.734,-0c-14.553,-0 -26.367,11.814 -26.367,26.367l-0,52.734c-0,14.553 11.814,26.367 26.367,26.367l52.734,0c14.553,0 26.367,-11.814 26.367,-26.367l0,-52.734Z" style="stroke:#f78f1e;stroke-width:3.52px;"/><path d="M95.666,58.037c2.792,1.501 4.808,3.42 6.047,5.758c1.239,2.339 1.858,5.654 1.858,9.947c0,13.507 -6.526,20.26 -19.579,20.26c-5.2,-0 -9.563,-1.457 -13.088,-4.371c-3.525,-2.915 -5.287,-8.141 -5.287,-15.68l13.506,0c0.035,2.967 0.419,5.148 1.152,6.544c0.733,1.396 2.216,2.094 4.45,2.094c3.629,0 5.444,-2.739 5.444,-8.219c0,-6.805 -2.53,-10.208 -7.591,-10.208l-2.669,-0l-0,-11.151c4.653,-0.07 7.57,-0.884 8.751,-2.441c1.181,-1.558 1.771,-3.686 1.771,-6.382c0,-5.286 -1.875,-7.929 -5.624,-7.929c-1.633,-0 -2.77,0.702 -3.412,2.107c-0.643,1.404 -0.998,3.616 -1.068,6.636l-12.093,-0c0,-6.771 1.527,-11.666 4.581,-14.685c3.054,-3.019 7.338,-4.528 12.852,-4.528c5.305,-0 9.476,1.501 12.512,4.502c3.036,3.001 4.554,7.155 4.554,12.459c0,3.7 -0.549,6.649 -1.649,8.848c-1.099,2.198 -2.905,4.345 -5.418,6.439Z" style="fill:#f78f1e;fill-rule:nonzero;"/><g><path d="M45.17,53.754l-25.174,0l0,-6.331l2.377,-0l0,-13.785l-2.377,0l0,-6.331l15.116,-0l-0,6.331l-2.51,0l0,13.785l6.255,-0l0,-4.24l6.313,-0l-0,10.571Z" style="fill:#f78f1e;fill-rule:nonzero;"/><path d="M30.549,92.693l-10.248,0l-0,-6.331l2.034,-0l0,-13.785l-2.091,0l-0,-6.331l15.952,-0l3.897,10.21l3.993,-10.21l15.857,-0l-0,6.331l-2.072,0l-0,13.785l2.129,-0l0,6.331l-13.804,0l0,-6.331l2.111,-0l-0,-14.774l-7.986,21.105l-3.954,0l-7.91,-20.914l0,14.583l2.092,-0l-0,6.331Z" style="fill:#f78f1e;fill-rule:nonzero;"/></g></svg>