<?xml version="1.0" encoding="UTF-8" standalone="no"?><!DOCTYPE svg PUBLIC "-//W3C//DTD SVG 1.1//EN" "http://www.w3.org/Graphics/SVG/1.1/DTD/svg11.dtd"><svg width="100%" height="100%" viewBox="0 0 120 120" version="1.1" xmlns="http://www.w3.org/2000/svg" xmlns:xlink="http://www.w3.org/1999/xlink" xml:space="preserve" xmlns:serif="http://www.serif.com/" style="fill-rule:evenodd;clip-rule:evenodd;stroke-linecap:round;stroke-linejoin:round;stroke-miterlimit:1.5;"><rect id="LM4" x="0" y="0" width="120" height="120" style="fill:none;"/><path d="M112.734,33.633c0,-14.553 -11.814,-26.367 -26.367,-26.367l-52.734,-0c-14.553,-0 -26.367,11.814 -26.367,26.367l-0,52.734c-0,14.553 11.814,26.367 26.367,26.367l52.734,0c14.553,0 26.367,-11.814 26.367,-26.367l0,-52.734Z" style="stroke:#f78f1e;stroke-width:3.52px;"/><path d="M104.356,77.145l-5.915,-0l-0,15.548l-11.779,0l-0,-15.548l-21.988,-0l0,-7.382l19.213,-42.456l14.554,-0l-0,40.31l5.915,0l0,9.528Zm-17.694,-9.528l-0,-26.505l-0.21,-0.044l-11.842,26.549l12.052,0Z" style="fill:#f78f1e;fill-rule:nonzero;"/><g><path d="M45.17,53.754l-25.174,0l0,-6.331l2.377,-0l0,-13.785l-2.377,0l0,-6.331l15.116,-0l-0,6.331l-2.51,0l0,13.785l6.255,-0l0,-4.24l6.313,-0l-0,10.571Z" style="fill:#f78f1e;"/><path d="M30.549,92.693l-10.248,0l-0,-6.331l2.034,-0l0,-13.785l-2.091,0l-0,-6.331l15.952,-0l3.897,10.21l3.993,-10.21l15.857,-0l-0,6.331l-2.072,0l-0,13.785l2.129,-0l0,6.331l-13.804,0l0,-6.331l2.111,-0l-0,-14.774l-7.986,21.105l-3.954,0l-7.91,-20.914l0,14.583l2.092,-0l-0,6.331Z" style="fill:#f78f1e;"/></g></svg>