<?xml version="1.0" encoding="UTF-8" standalone="no"?><!DOCTYPE svg PUBLIC "-//W3C//DTD SVG 1.1//EN" "http://www.w3.org/Graphics/SVG/1.1/DTD/svg11.dtd"><svg width="100%" height="100%" viewBox="0 0 120 120" version="1.1" xmlns="http://www.w3.org/2000/svg" xmlns:xlink="http://www.w3.org/1999/xlink" xml:space="preserve" xmlns:serif="http://www.serif.com/" style="fill-rule:evenodd;clip-rule:evenodd;stroke-linecap:round;stroke-linejoin:round;stroke-miterlimit:1.5;"><rect id="LM5" x="0" y="0" width="120" height="120" style="fill:none;"/><path d="M112.734,33.633c0,-14.553 -11.814,-26.367 -26.367,-26.367l-52.734,-0c-14.553,-0 -26.367,11.814 -26.367,26.367l-0,52.734c-0,14.553 11.814,26.367 26.367,26.367l52.734,0c14.553,0 26.367,-11.814 26.367,-26.367l0,-52.734Z" style="stroke:#f78f1e;stroke-width:3.52px;"/><path d="M81.057,50.237c6.912,0.453 12.053,2.573 15.421,6.36c3.367,3.787 5.051,8.664 5.051,14.632c0,6.945 -1.998,12.477 -5.994,16.595c-3.996,4.119 -9.344,6.178 -16.045,6.178c-4.747,-0 -9.65,-1.187 -14.711,-3.56l1.937,-12.669c4.747,2.862 8.673,4.293 11.779,4.293c2.897,-0 5.209,-0.992 6.937,-2.977c1.727,-1.984 2.591,-4.63 2.591,-7.937c-0,-3.239 -1.169,-5.789 -3.508,-7.651c-2.338,-1.863 -5.601,-2.794 -9.789,-2.794c-1.885,-0 -3.909,0.139 -6.073,0.419l3.403,-33.924l28.008,0l-0,12.198l-17.92,-0l-1.087,10.837Z" style="fill:#f78f1e;fill-rule:nonzero;"/><g><path d="M45.17,53.754l-25.174,0l0,-6.331l2.377,-0l0,-13.785l-2.377,0l0,-6.331l15.116,-0l-0,6.331l-2.51,0l0,13.785l6.255,-0l0,-4.24l6.313,-0l-0,10.571Z" style="fill:#f78f1e;fill-rule:nonzero;"/><path d="M30.549,92.693l-10.248,0l-0,-6.331l2.034,-0l0,-13.785l-2.091,0l-0,-6.331l15.952,-0l3.897,10.21l3.993,-10.21l15.857,-0l-0,6.331l-2.072,0l-0,13.785l2.129,-0l0,6.331l-13.804,0l0,-6.331l2.111,-0l-0,-14.774l-7.986,21.105l-3.954,0l-7.91,-20.914l0,14.583l2.092,-0l-0,6.331Z" style="fill:#f78f1e;fill-rule:nonzero;"/></g></svg>