<?xml version="1.0" encoding="UTF-8" standalone="no"?><!DOCTYPE svg PUBLIC "-//W3C//DTD SVG 1.1//EN" "http://www.w3.org/Graphics/SVG/1.1/DTD/svg11.dtd"><svg width="100%" height="100%" viewBox="0 0 120 120" version="1.1" xmlns="http://www.w3.org/2000/svg" xmlns:xlink="http://www.w3.org/1999/xlink" xml:space="preserve" xmlns:serif="http://www.serif.com/" style="fill-rule:evenodd;clip-rule:evenodd;stroke-linecap:round;stroke-linejoin:round;stroke-miterlimit:1.5;"><rect id="LM6" x="0" y="0" width="120" height="120" style="fill:none;"/><path d="M112.734,33.633c0,-14.553 -11.814,-26.367 -26.367,-26.367l-52.734,-0c-14.553,-0 -26.367,11.814 -26.367,26.367l-0,52.734c-0,14.553 11.814,26.367 26.367,26.367l52.734,0c14.553,0 26.367,-11.814 26.367,-26.367l0,-52.734Z" style="stroke:#f78f1e;stroke-width:3.52px;"/><path d="M83.73,52.278c1.606,-0.558 3.106,-0.837 4.502,-0.837c10.54,-0 15.81,6.788 15.81,20.364c0,6.806 -1.754,12.207 -5.261,16.203c-3.508,3.996 -8.228,5.994 -14.161,5.994c-6.107,-0 -10.836,-2.286 -14.187,-6.858c-3.35,-4.572 -5.026,-9.755 -5.026,-15.548c0,-10.54 5.48,-25.338 16.439,-44.394l14.448,0c-6.142,10.854 -10.33,19.213 -12.564,25.076Zm0.969,30.311c2.119,0 3.604,-0.863 4.455,-2.591c0.851,-1.728 1.277,-4.616 1.277,-8.664c0,-3.56 -0.434,-6.16 -1.303,-7.8c-0.868,-1.641 -2.275,-2.461 -4.221,-2.461c-3.856,0 -5.784,3.787 -5.784,11.36c0,6.771 1.859,10.156 5.576,10.156Z" style="fill:#f78f1e;fill-rule:nonzero;"/><g><path d="M45.17,53.754l-25.174,0l0,-6.331l2.377,-0l0,-13.785l-2.377,0l0,-6.331l15.116,-0l-0,6.331l-2.51,0l0,13.785l6.255,-0l0,-4.24l6.313,-0l-0,10.571Z" style="fill:#f78f1e;fill-rule:nonzero;"/><path d="M30.549,92.693l-10.248,0l-0,-6.331l2.034,-0l0,-13.785l-2.091,0l-0,-6.331l15.952,-0l3.897,10.21l3.993,-10.21l15.857,-0l-0,6.331l-2.072,0l-0,13.785l2.129,-0l0,6.331l-13.804,0l0,-6.331l2.111,-0l-0,-14.774l-7.986,21.105l-3.954,0l-7.91,-20.914l0,14.583l2.092,-0l-0,6.331Z" style="fill:#f78f1e;fill-rule:nonzero;"/></g></svg>